PathFileType	4	(X/Y/Z)	C:\Users\°ÂÌØÂü\Desktop\20210112\bx_y_0_1801-Unnamed.trc
DataRate	CameraRate	NumFrames	NumMarkers	Units	OrigDataRate	OrigDataStartFrame	OrigNumFrames
50.00	50.00	       4	0	mm	50.00	178	       708
Frame#	Time	
		

178	3.540	-492.06860	-57.14893	1151.72742	-605.43738	290.08105	559.78363	-668.09924	-9.92683	745.29364	-750.19611	304.19022	739.86224	-668.26465	247.12340	748.31055							-528.36035	191.04933	533.97156	-577.28699	293.53754	520.55951	-537.51270	1.85119	465.32983	-633.75409	288.99530	464.44296	-525.65576	249.83727	473.89194				-663.00043	-65.50054	164.89607	-694.73743	152.68462	208.64595	-882.52155	296.11130	144.57765	-672.07587	58.02103	152.82494	-600.92407	17.88357	164.60472	-592.89709	224.40576	173.82452	-667.89856	298.84521	160.19919	-630.92200	307.60416	161.92525	-559.76721	264.90707	165.45908	-528.08600	304.15735	146.47820	-334.21304	129.44217	1414.55554	-494.88300	306.72595	1160.07654	-624.41602	-77.73188	160.52328	-517.65344	-72.86914	142.85204	-788.73999	165.75208	189.82684	-759.05920	221.42686	206.09418	-966.06940	106.56689	884.89136	-753.87195	0.33245	211.17819	-788.62903	63.09093	178.22885	-643.89563	-44.66478	460.63281	-561.64459	-45.24516	165.75337	-875.84747	-78.73531	140.96178				-587.45679	-46.90973	558.65625	-576.09180	-45.04892	518.61438	-672.33618	172.68367	153.29262	-545.81470	63.83862	538.58728				-757.17328	-70.78646	734.59393	-700.41852	82.95222	206.13412	
179	3.560	-490.75430	-56.87535	1144.12646	-603.49884	289.63931	557.57404	-668.95209	-8.68043	743.09241	-750.40021	302.73749	734.97766	-668.57562	246.81989	745.75171							-526.26276	190.31612	533.84009	-575.27362	293.12280	519.20056	-535.33752	3.04424	464.87283	-631.63647	288.63361	463.44797	-524.28351	249.15526	472.27856				-662.85608	-64.92901	165.02234	-694.96075	152.45625	208.14529	-882.59778	296.15677	144.59505	-671.66144	58.58384	152.26326	-600.81628	18.21788	164.47394	-592.60504	223.81061	173.39165	-667.76837	298.63092	160.46423	-630.87073	307.51315	162.44504	-559.77789	264.73465	165.25763	-528.07770	304.24625	146.45256	-329.47891	130.63646	1404.36499	-492.91058	307.23416	1151.59998	-624.22443	-76.90572	161.07253	-517.50128	-72.65181	142.75493	-788.59760	165.39748	189.97835	-758.76227	221.20625	206.22726	-966.49677	107.13873	880.21277	-753.24890	1.04076	211.54742	-788.71167	63.44056	178.37468	-642.28296	-44.18619	460.22345	-561.56073	-45.25541	165.43410	-875.99457	-78.94872	141.12155				-585.83887	-45.57856	557.59625	-574.47717	-44.30999	517.69287	-672.36285	172.39716	153.45357	-543.81213	64.96074	537.52100				-757.48938	-70.51067	731.26160	-700.14630	83.12444	205.98473	
180	3.580	-489.15665	-56.04937	1136.25684	-601.69025	289.45407	555.92969	-669.50446	-8.09771	740.90912	-750.04437	303.13257	731.58850	-668.86993	246.49446	742.99597	-671.11017	-60.11646	616.52014				-524.84668	189.91399	532.40460	-573.50964	292.83984	517.62451	-534.19299	3.68912	463.55225	-629.23456	289.35645	463.74011	-522.06146	248.50302	471.63937				-662.68298	-65.02357	165.03162	-694.72803	152.04549	207.65140	-882.80072	296.18335	144.57785	-671.15900	59.08532	152.29222	-600.83331	18.39287	164.17422	-592.31714	223.63194	173.16437	-667.67767	298.39011	160.76985	-630.85388	307.31577	162.62909	-559.72601	264.64774	165.21297	-528.07770	304.24625	146.45256	-324.72852	131.43304	1394.40149	-490.76547	307.65851	1142.79456	-624.27020	-76.40492	161.59702	-517.48254	-72.70038	142.91287	-788.29767	165.20119	189.80585	-758.65955	220.94586	206.04123	-966.92072	107.97711	875.46857	-752.26575	1.23425	212.07193	-788.63245	63.59743	178.46176	-641.13837	-43.73575	459.49078	-561.67133	-45.35073	165.42133	-875.97748	-78.88188	141.21204				-584.25909	-44.96117	556.35712	-572.87262	-43.33991	516.94061	-672.30219	172.06311	152.99904	-542.46240	65.96011	537.19318				-757.89581	-69.86402	727.80981	-699.80457	83.95926	205.99364	
181	3.600	-487.38577	-55.68330	1128.49329	-599.78888	289.58337	555.07227	-670.46576	-7.11601	738.70160	-750.23029	303.54578	728.44446	-669.45190	246.65588	740.83264							-523.54120	189.24002	532.12195	-571.63391	293.26373	517.09137	-532.61102	4.26121	463.45416	-627.99878	289.39517	463.61945	-521.04456	248.13286	471.06863				-662.97925	-64.58614	165.08418	-694.65869	151.92107	207.46208	-882.64819	296.19293	144.56335	-671.29138	59.10650	151.40263	-600.75348	18.35070	164.22589	-592.25598	223.52950	173.19179	-667.55457	297.97879	160.84271	-630.74316	307.16644	162.55550	-559.64990	264.58499	165.22542	-528.19830	304.30228	146.37737	-320.38055	132.45381	1384.57251	-488.62979	308.16330	1134.59668	-624.22339	-76.03870	161.78297	-517.52472	-73.05000	143.10707	-788.04205	164.88649	189.92482	-758.42169	220.74489	206.17046	-967.40338	109.01257	870.90131	-752.32007	1.45548	211.73070	-788.63977	64.30753	178.71774	-639.93658	-42.94464	458.43951	-561.65833	-45.28674	165.47511	-875.68481	-78.36182	141.19174				-583.19617	-45.33014	555.95160	-571.59528	-43.77069	516.08893	-672.30219	172.06311	152.99904	-541.56458	66.51537	536.34436				-757.79669	-69.47257	724.62921	-699.66565	84.54731	205.98647	
